<svg width="36" height="36" viewBox="0 0 36 36" fill="none" xmlns="http://www.w3.org/2000/svg">
<path d="M18 0C8.05982 0 0 8.26875 0 18.458C0 26.6143 5.15893 33.525 12.3107 35.9678C12.411 35.9896 12.5134 36.0004 12.6161 36C13.283 36 13.5402 35.5098 13.5402 35.0839C13.5402 34.642 13.5241 33.4848 13.5161 31.942C12.9207 32.0815 12.3115 32.1543 11.7 32.1589C8.23661 32.1589 7.44911 29.467 7.44911 29.467C6.62946 27.3375 5.44821 26.767 5.44821 26.767C3.88125 25.6661 5.44018 25.6339 5.56071 25.6339H5.56875C7.37679 25.7946 8.325 27.5464 8.325 27.5464C9.225 29.1214 10.4304 29.5634 11.5071 29.5634C12.2191 29.5491 12.9201 29.3849 13.5643 29.0812C13.725 27.892 14.1911 27.0803 14.7054 26.6143C10.7116 26.1482 6.50893 24.5652 6.50893 17.4937C6.50893 15.4768 7.20804 13.8295 8.35714 12.5437C8.17232 12.0777 7.55357 10.1973 8.53393 7.65803C8.66543 7.62657 8.80059 7.61305 8.93571 7.61785C9.58661 7.61785 11.0571 7.86696 13.4839 9.55446C16.4327 8.72944 19.5513 8.72944 22.5 9.55446C24.9268 7.86696 26.3973 7.61785 27.0482 7.61785C27.1833 7.61305 27.3185 7.62657 27.45 7.65803C28.4304 10.1973 27.8116 12.0777 27.6268 12.5437C28.7759 13.8375 29.475 15.4848 29.475 17.4937C29.475 24.5812 25.2643 26.1402 21.2545 26.5982C21.8973 27.1687 22.4759 28.2937 22.4759 30.0134C22.4759 32.4803 22.4518 34.4732 22.4518 35.0759C22.4518 35.5098 22.7009 36 23.3679 36C23.4758 36.0005 23.5835 35.9897 23.6893 35.9678C30.8491 33.525 36 26.6062 36 18.458C36 8.26875 27.9402 0 18 0Z" fill="black"/>
</svg>
